<svg width="183" height="46" viewBox="0 0 183 46" fill="none" xmlns="http://www.w3.org/2000/svg">
<path d="M41.4096 2.157C42.3166 2.327 43.5286 2.831 44.7426 4.128C44.7426 4.128 43.6786 6.431 42.7696 8.304L42.6996 8.448C42.6716 8.545 42.5876 8.64 42.5596 8.736C41.3016 11.328 41.1546 11.185 39.7016 15.073L37.8936 19.057C34.1016 26.161 33.5976 33.794 33.7186 33.842L33.9916 35.823C31.3876 35.823 28.7306 33.649 28.0876 31.25C27.7536 30.002 29.0046 24.145 31.0146 19.297C25.9176 26.593 22.3676 31.506 20.4916 31.198C18.6156 30.89 15.5926 30.535 14.9496 28.135C14.6026 26.839 14.8056 24.193 16.8566 19.296C11.7596 26.592 7.69657 35.78 6.21057 35.385C6.21057 35.385 0.685569 33.649 0.0435686 31.249C-0.304431 29.953 1.48357 24.392 3.57557 19.447C3.57557 19.447 9.97257 5.936 12.0456 5.168C12.5936 4.784 13.3046 4.39999 14.2266 4.39999C15.1486 4.39999 15.9616 4.543 16.0666 5.271C16.0666 5.271 15.5796 6.42899 14.6706 8.30199L14.2416 9.134C12.7736 12.158 9.78357 18.78 9.78357 18.78C7.24157 23.947 6.67857 25.574 5.99157 28.072C18.3906 6.326 25.1776 1.989 26.5336 1.989C27.4556 1.989 29.3686 2.83 30.5846 4.127C30.5846 4.127 29.5206 6.42999 28.6116 8.30299L28.5416 8.447C28.5136 8.544 28.4846 8.639 28.4016 8.735C27.1556 11.376 27.1046 11.184 25.5426 15.072L23.7356 19.056C22.0346 22.224 22.4526 23.853 20.9916 26.198C36.3296 1.586 38.1376 3.65599 38.1996 3.25999C39.2796 2.24599 40.0756 1.907 41.4096 2.157Z" fill="white"/>
<path d="M49.5126 28.418C46.1916 34.852 45.0066 36.1 42.1866 36.1C40.0706 36.1 38.1886 34.947 37.5066 32.403C37.0046 30.531 37.1106 27.89 38.2876 24.386C40.9386 16.466 44.4336 12.097 48.7186 12.097C49.1536 12.097 49.6546 12.145 50.1136 12.242C50.6276 12.338 53.6956 13.057 54.3516 15.507C54.6226 16.514 54.4266 17.81 53.5206 19.491L53.0736 20.449C52.9596 20.834 52.2696 22.513 51.2766 24.674C53.9726 22.994 57.6486 21.171 59.1806 18.387L61.3936 19.922C61.3936 19.922 60.6676 22.273 49.5126 28.418ZM43.1916 33.17C43.7886 33.17 44.6856 32.066 45.6586 30.435C45.1676 30.626 43.7236 31.107 42.8006 31.107C42.6926 31.107 42.6386 31.107 42.5836 31.107C42.4796 31.731 42.4456 32.211 42.5486 32.595C42.6006 32.786 42.7596 32.979 42.8946 33.075C42.9616 33.123 43.0826 33.17 43.1916 33.17ZM44.0806 25.154C43.6376 26.738 43.2916 28.082 42.9916 29.186C43.9916 28.465 46.6516 28.616 47.5836 26.69C49.8696 21.969 51.5026 17.043 51.2526 15.578C51.1316 14.87 49.9696 15.264 49.7246 15.453C49.4746 15.648 45.3726 20.258 44.0806 25.154Z" fill="white"/>
<path d="M75.1066 15.841C76.0456 19.346 74.5396 24.05 70.9846 29.811C68.2336 34.324 65.4836 36.003 63.2586 36.003C60.2756 36.003 56.5506 33.843 55.7656 30.915C55.4316 29.666 56.7066 23.09 58.9776 18.001C58.9776 18.001 65.6576 1.63199 67.8796 0.814995C68.4146 0.382995 69.2336 0 70.1566 0C71.1866 0 72.3456 0.478997 73.6286 1.824C73.6286 1.824 72.5076 4.32 71.4746 6.337L71.4456 6.432C70.2136 9.12 70.4126 8.449 69.3776 10.658C71.3926 11.09 72.6096 12.193 72.9326 12.386C74.0036 13.345 74.7466 14.497 75.1066 15.841ZM69.9666 13.056C68.9616 13.011 67.8076 15.12 66.3736 17.665L66.3166 17.856C63.4616 22.993 62.3916 28.513 61.9956 31.489C63.0186 31.057 64.3506 28.945 66.7466 25.537C69.6826 21.312 70.9196 14.593 70.7056 14.399C70.6336 13.965 70.9716 13.101 69.9666 13.056Z" fill="white"/>
<path d="M101.973 32.306C101.1 34.514 99.2756 36.002 95.8026 36.002C92.6566 36.002 89.1056 33.074 87.0376 29.81C85.0166 32.594 83.4496 35.042 82.4356 35.715C82.4356 35.715 81.8076 36.002 81.5896 36.002C80.9926 36.002 77.5906 33.505 76.8896 32.834C76.2576 32.23 76.2936 32.67 75.8176 31.058C75.3516 29.48 79.4996 12 83.7296 12C83.8376 12 83.8926 12 84.0006 12C87.5566 12.72 88.1536 14.544 88.2046 14.735C82.9956 21.408 81.8646 30.145 81.6376 32.737C83.0276 30.433 84.3446 28.465 85.5626 26.737C85.5376 26.64 87.2006 24.144 87.4856 24.193C91.0886 19.825 93.7756 17.904 94.8006 17.28C94.3106 13.632 95.9896 12 97.6166 12C100.111 12 100.927 13.375 101.326 14.865C101.801 16.64 99.9706 16.128 100.767 19.105C100.96 19.826 101.259 20.738 101.503 21.65C102.005 23.521 102.434 25.729 102.511 27.842C107.075 21.792 108.9 21.313 108.9 21.313L110.576 23.521C106.197 25.393 103.735 29.57 101.973 32.306ZM84.9486 8.448C84.5246 6.864 85.5566 4.848 86.1496 4.223C86.6406 4.032 87.2526 3.887 87.9576 3.887C89.2596 3.887 90.7156 4.463 91.8946 6.431L88.2036 10.273C86.1426 10.273 85.2186 9.456 84.9486 8.448ZM95.5646 20.738C93.1686 22.321 91.0606 24.578 89.2366 26.883C89.2586 27.17 89.2946 27.506 89.3716 27.795C90.0016 30.147 92.4126 32.259 93.9856 32.259C95.7096 32.211 97.6036 30.578 95.5646 20.738Z" fill="white"/>
<path d="M131.181 19.137C125.13 22.066 118.961 28.707 116.868 31.827C114.679 36.003 113.294 36.099 111.395 36.099C109.278 36.099 107.342 34.946 106.647 32.354C106.147 30.483 106.307 27.842 107.483 24.338C110.163 16.32 113.604 11.952 117.943 11.952C118.54 11.952 119 12.048 119.635 12.191C120.324 12.336 122.94 13.392 123.209 14.399C123.232 14.688 123.252 15.168 123.037 15.984C122.215 19.392 120.725 19.073 120.617 19.073C120.509 19.073 120.416 18.928 120.365 18.737C120.082 17.68 121.26 15.28 120.626 14.88C119.992 14.48 119.362 15.025 119.158 15.072C118.857 15.168 114.554 20.16 113.263 25.057C112.173 29.089 111.447 31.441 111.743 32.545C111.819 32.833 112.073 33.168 112.397 33.168C112.385 33.121 113.147 33.291 113.784 32.064L114.77 30.481C114.838 30.336 114.868 30.24 114.868 30.24C122.446 17.423 129.061 16.494 129.061 16.494L131.181 19.137Z" fill="white"/>
<path d="M135.698 28.418C132.376 34.852 131.192 36.1 128.372 36.1C126.257 36.1 124.374 34.947 123.692 32.403C123.19 30.531 123.297 27.89 124.473 24.386C127.125 16.466 130.619 12.097 134.905 12.097C135.339 12.097 135.84 12.145 136.3 12.242C136.814 12.338 139.882 13.057 140.538 15.507C140.808 16.514 140.612 17.81 139.706 19.491L139.259 20.449C139.144 20.834 138.456 22.513 137.462 24.674C140.157 22.994 143.618 21.512 146.993 18.387L150.181 20.163C150.181 20.163 146.852 22.273 135.698 28.418ZM129.378 33.17C129.974 33.17 130.872 32.066 131.845 30.435C131.353 30.626 129.909 31.107 128.988 31.107C128.879 31.107 128.824 31.107 128.771 31.107C128.666 31.731 128.632 32.211 128.736 32.595C128.787 32.786 128.947 32.979 129.081 33.075C129.147 33.123 129.268 33.17 129.378 33.17ZM130.266 25.154C129.823 26.738 129.477 28.082 129.176 29.186C130.177 28.465 131.858 27.65 133.77 26.69C136.248 21.361 138.364 15.255 137.575 14.977C136.785 14.699 136.325 15.168 136.12 15.216C135.807 15.264 131.559 20.258 130.266 25.154Z" fill="white"/>
<path d="M163.921 16.945C164.796 20.21 163.388 24.674 160.067 30.097C157.415 34.37 154.87 36.002 152.754 36.002C150.475 36.002 148.725 34.13 148.016 31.682C147.952 31.442 147.957 31.058 148.032 30.53C144.938 37.203 144.544 43.827 144.598 43.827L144.327 45.449C141.669 45.449 139.61 43.636 138.968 41.235C138.633 39.987 139.874 33.89 141.98 28.994C141.98 28.994 148.253 13.537 150.38 12.768C150.928 12.384 151.693 12 152.562 12C153.429 12 154.455 12.384 155.55 13.439C156.339 12.335 157.335 12 158.202 12C160.1 12 161.772 13.584 161.841 13.632C162.897 14.545 163.573 15.648 163.921 16.945ZM159.792 15.506C159.798 15.334 159.611 14.221 159.079 14.258C158.118 14.324 157.928 15.026 157.692 15.362C155.698 18.242 149.966 29.044 150.585 31.347C150.661 31.635 150.862 31.78 151.189 31.78C152.22 31.78 153.457 29.715 156.059 26.067C158.813 22.178 159.774 16.043 159.792 15.506Z" fill="white"/>
<path d="M174.676 34.017C172.134 35.683 172.093 35.849 170.464 36.035C168.361 36.273 166.411 34.884 165.73 32.339C165.228 30.468 165.39 27.827 166.566 24.323C169.217 16.402 172.658 12.033 176.998 12.033C177.432 12.033 177.932 12.081 178.393 12.177C178.448 12.177 181.949 12.898 182.618 15.394C182.772 15.97 182.79 16.642 182.574 17.457C182.507 17.409 182.3 23.314 172.274 25.378C171.242 29.219 170.532 31.427 170.815 32.483C170.905 32.819 171.145 33.107 171.417 33.107C171.579 33.107 171.844 33.058 172.099 32.819L172.97 32.099C183.821 22.577 180.678 28.85 180.678 28.85C180.678 28.85 178.314 31.631 174.676 34.017ZM173.208 22.595C177.943 22.45 179.735 16.786 179.735 16.786C179.782 16.353 180.337 15.293 179.667 14.913C179.21 14.654 178.54 14.949 178.212 15.153C177.943 15.32 174.973 18.657 173.208 22.595Z" fill="white"/>
</svg>
