<svg width="30" height="30" viewBox="0 0 92 114" fill="none" xmlns="http://www.w3.org/2000/svg">
<path d="M34.42 110H4C4 110 4 20.1054 4 11.1167C4 2.128 88.5 2.12804 88.5 11.1167C88.5 20.1054 88.5 110 88.5 110H58.08M34.42 110V86.0283H58.08V110M34.42 110H58.08" stroke="#606060" stroke-width="7"/>
<path d="M17.52 38.0842V26.0984H27.66V38.0842H17.52Z" stroke="#606060" stroke-width="4"/>
<path d="M17.52 62.0559V50.0701H27.66V62.0559H17.52Z" stroke="#606060" stroke-width="4"/>
<path d="M41.18 38.0842V26.0984H51.32V38.0842H41.18Z" stroke="#606060" stroke-width="4"/>
<path d="M41.18 62.0559V50.0701H51.32V62.0559H41.18Z" stroke="#606060" stroke-width="4"/>
<path d="M64.84 38.0842V26.0984H74.98V38.0842H64.84Z" stroke="#606060" stroke-width="4"/>
<path d="M64.84 62.0559V50.0701H74.98V62.0559H64.84Z" stroke="#606060" stroke-width="4"/>
</svg>
