<svg width="28" height="28" viewBox="0 0 28 28" fill="none" xmlns="http://www.w3.org/2000/svg">
<path d="M14 16C14.2652 16 14.5196 15.8946 14.7071 15.7071C14.8946 15.5196 15 15.2652 15 15C15 14.7348 14.8946 14.4804 14.7071 14.2929C14.5196 14.1054 14.2652 14 14 14C12.8133 14 11.6533 13.6481 10.6666 12.9888C9.67988 12.3295 8.91085 11.3925 8.45672 10.2961C8.0026 9.19975 7.88378 7.99335 8.11529 6.82946C8.3468 5.66558 8.91824 4.59648 9.75736 3.75736C10.5965 2.91825 11.6656 2.3468 12.8295 2.11529C13.9933 1.88378 15.1997 2.0026 16.2961 2.45673C17.3925 2.91085 18.3295 3.67989 18.9888 4.66658C19.6481 5.65328 20 6.81332 20 8V10C20 10.2652 19.8946 10.5196 19.7071 10.7071C19.5196 10.8946 19.2652 11 19 11C18.7348 11 18.4804 10.8946 18.2929 10.7071C18.1054 10.5196 18 10.2652 18 10V8C18 7.20888 17.7654 6.43552 17.3259 5.77772C16.8864 5.11993 16.2616 4.60724 15.5307 4.30449C14.7998 4.00174 13.9956 3.92252 13.2196 4.07686C12.4437 4.2312 11.731 4.61217 11.1716 5.17158C10.6122 5.73099 10.2312 6.44372 10.0769 7.21964C9.92252 7.99557 10.0017 8.79983 10.3045 9.53074C10.6072 10.2616 11.1199 10.8864 11.7777 11.3259C12.4355 11.7654 13.2089 12 14 12C14.8201 11.9972 15.6196 11.7423 16.29 11.27C16.5815 11.8839 17.0728 12.3807 17.6835 12.679C18.2941 12.9772 18.988 13.0593 19.6514 12.9117C20.3148 12.7642 20.9084 12.3957 21.3351 11.8668C21.7618 11.3378 21.9962 10.6796 22 10V8C22 6.41775 21.5308 4.87103 20.6518 3.55544C19.7727 2.23985 18.5233 1.21447 17.0615 0.608967C15.5997 0.00346625 13.9911 -0.15496 12.4393 0.153721C10.8874 0.462403 9.46197 1.22433 8.34315 2.34315C7.22433 3.46197 6.4624 4.88743 6.15372 6.43928C5.84504 7.99113 6.00346 9.59966 6.60896 11.0615C7.21447 12.5233 8.23984 13.7727 9.55544 14.6518C10.871 15.5308 12.4177 16 14 16ZM14 10C13.6044 10 13.2178 9.88271 12.8889 9.66294C12.56 9.44318 12.3036 9.13082 12.1522 8.76537C12.0009 8.39992 11.9613 7.99779 12.0384 7.60982C12.1156 7.22186 12.3061 6.8655 12.5858 6.58579C12.8655 6.30609 13.2219 6.1156 13.6098 6.03843C13.9978 5.96126 14.3999 6.00087 14.7654 6.15224C15.1308 6.30362 15.4432 6.55997 15.6629 6.88886C15.8827 7.21776 16 7.60444 16 8C16 8.53044 15.7893 9.03914 15.4142 9.41422C15.0391 9.78929 14.5304 10 14 10V10ZM27.61 11.21L24.61 8.9C24.3993 8.75715 24.1421 8.70002 23.8907 8.74025C23.6394 8.78048 23.4129 8.91504 23.2573 9.11652C23.1017 9.31799 23.0288 9.57121 23.0535 9.82455C23.0782 10.0779 23.1985 10.3123 23.39 10.48L25.39 12L14 20.74L2.64 12L4.64 10.48C4.84952 10.3142 4.98461 10.072 5.01556 9.80668C5.0465 9.54131 4.97076 9.27452 4.805 9.065C4.63924 8.85548 4.39704 8.72039 4.13167 8.68945C3.86631 8.6585 3.59952 8.73424 3.39 8.9L0.39 11.21C0.268985 11.3032 0.170915 11.4228 0.103311 11.5597C0.0357077 11.6967 0.00036708 11.8473 0 12V25C0 25.7957 0.316071 26.5587 0.87868 27.1213C1.44129 27.6839 2.20435 28 3 28H25C25.7956 28 26.5587 27.6839 27.1213 27.1213C27.6839 26.5587 28 25.7957 28 25V12C27.9996 11.8473 27.9643 11.6967 27.8967 11.5597C27.8291 11.4228 27.731 11.3032 27.61 11.21ZM25 26H3C2.73478 26 2.48043 25.8946 2.29289 25.7071C2.10536 25.5196 2 25.2652 2 25V14L13.39 22.76C13.5649 22.8946 13.7793 22.9676 14 22.9676C14.2207 22.9676 14.4351 22.8946 14.61 22.76L26 14V25C26 25.2652 25.8946 25.5196 25.7071 25.7071C25.5196 25.8946 25.2652 26 25 26Z" fill="white"/>
</svg>
