<svg width="27" height="27" viewBox="0 0 27 27" fill="none" xmlns="http://www.w3.org/2000/svg">
<path d="M8.08095 0C6.6042 0 5.3873 1.2169 5.3873 2.69365V5.3873H2.69365C1.2169 5.3873 0 6.6042 0 8.08095V18.8555C0 20.3323 1.2169 21.5492 2.69365 21.5492H5.38555V24.2428C5.38555 25.7196 6.60595 26.94 8.0827 26.94H18.8538C20.3306 26.94 21.551 25.7196 21.551 24.2428V21.5492H24.2429C25.7196 21.5492 26.9365 20.3323 26.9365 18.8555V8.08095C26.9365 6.6042 25.7196 5.3873 24.2429 5.3873H21.5492V2.69365C21.5492 1.2169 20.3323 0 18.8556 0H8.08095ZM8.08095 1.79577H18.8556C19.3685 1.79577 19.7534 2.18071 19.7534 2.69365V5.3873H7.18307V2.69365C7.18307 2.18071 7.56799 1.79577 8.08095 1.79577ZM2.69365 7.18306H24.2429C24.7558 7.18306 25.1407 7.56801 25.1407 8.08095V18.8555C25.1407 19.3685 24.7558 19.7534 24.2429 19.7534H21.551V15.2605C21.55 15.0224 21.4545 14.7944 21.2855 14.6267C21.1164 14.4589 20.8877 14.3652 20.6496 14.3661H6.28694C6.04881 14.3652 5.82007 14.4589 5.65104 14.6267C5.482 14.7944 5.3865 15.0224 5.38555 15.2605V19.7534H2.69365C2.18069 19.7534 1.79577 19.3685 1.79577 18.8555V8.08095C1.79577 7.56801 2.18069 7.18306 2.69365 7.18306ZM7.18131 16.1619H19.7552V24.2428C19.7552 24.7558 19.3668 25.1442 18.8538 25.1442H8.0827C7.56975 25.1442 7.18131 24.7558 7.18131 24.2428V16.1619Z" fill="white"/>
</svg>
